<?xml version="1.0" encoding="UTF-8"?>
<svg id="Livello_1" xmlns="http://www.w3.org/2000/svg" version="1.1" viewBox="0 0 498 354.1">
  <!-- Generator: Adobe Illustrator 29.2.0, SVG Export Plug-In . SVG Version: 2.1.0 Build 108)  -->
  <defs>
    <style>
      .st0 {
        fill: #ededed;
      }
    </style>
  </defs>
  <path class="st0" d="M48.3,313c-10.9,1-20,1.5-27.2,1.5s-8.3-1.1-10.6-3.4c-2.3-2.3-3.4-5.8-3.4-10.6v-23.5c0-5.1,1.2-8.9,3.5-11.2,2.3-2.3,6.1-3.5,11.2-3.5h26.5v10.3h-23.5c-2.9,0-4.4,1.5-4.4,4.4v23.5c0,1.1.3,2,1,2.7s1.5,1,2.5,1,2.2,0,3.4,0c1.2,0,2.5,0,3.8-.1,1.3,0,2.7,0,4-.1,1.3,0,3.1-.1,5.2-.3,2.1-.1,4.8-.3,8-.5v9.9Z"/>
  <path class="st0" d="M55.3,275.6c9-1,17-1.5,24.2-1.5s6,1,8,3c2,2,3,4.7,3,8v28.7h-11.4l-.7-3.7c-2.3,1.5-4.7,2.6-7.1,3.3s-4.5,1.1-6.1,1.1h-2.6c-3.3,0-6-1-8-3-2-2-3-4.7-3-8v-3.3c0-3.3,1-6,3-8,2-2,4.7-3,8-3h15.1v-2.9c0-.7-.2-1.3-.7-1.8-.5-.5-1.1-.7-1.8-.7-3.2,0-6.7.1-10.5.4-3.8.3-6.9.5-9.3.7v-9.2ZM68.9,304.2c2.6,0,5.5-.5,8.8-1.5v-4.4h-10.7c-.7,0-1.3.2-1.8.7s-.7,1.1-.7,1.8v.7c0,.7.2,1.3.7,1.8.5.5,1.1.7,1.8.7h1.8Z"/>
  <path class="st0" d="M110,313.8v12.5h-12.9v-51.4h11.4l.7,3.7c2.3-1.5,4.7-2.6,7.1-3.3,2.4-.7,4.5-1.1,6.1-1.1h3.3c3.3,0,6,1,8,3,2,2,3,4.7,3,8v16.9c0,3.7-1,6.6-3.1,8.6-2.1,2.1-5,3.1-8.6,3.1h-15.1ZM118.8,284.8c-2.6,0-5.5.5-8.8,1.5v17.6h11c2,0,2.9-1,2.9-2.9v-13.6c0-.7-.2-1.3-.7-1.8-.5-.5-1.1-.7-1.8-.7h-2.6Z"/>
  <path class="st0" d="M165.9,285.5c-3.1,0-6.3.7-9.6,2.2v26.1h-12.9v-38.9h11.4l.7,4.8c4.2-3.7,8.6-5.5,13.2-5.5h3.3v11.4h-6.2Z"/>
  <path class="st0" d="M194.5,274.1v39.7h-13.6v-29.2h-5.8v-10.5h19.4Z"/>
  <path class="st0" d="M235.3,313c-9.2,1-17.2,1.5-24.2,1.5s-6-1-8-3c-2-2-3-4.7-3-8v-16.9c0-3.7,1-6.6,3.1-8.6,2.1-2.1,5-3.1,8.6-3.1h23.5v9.9h-19.5c-2,0-2.9,1-2.9,2.9v14.3c0,.7.2,1.3.7,1.8.5.5,1.1.7,1.8.7,4.4,0,11-.4,19.8-1.1v9.6Z"/>
  <path class="st0" d="M282.7,313.8h-40.8v-51.4h40.8v10.3h-27.6v9.9h21.7v10.3h-21.7v10.7h27.6v10.3Z"/>
  <path class="st0" d="M309.6,284.8c-2.6,0-5.5.5-8.8,1.5v27.6h-12.9v-38.9h11.4l.7,3.7c2.3-1.5,4.7-2.6,7.1-3.3,2.4-.7,4.5-1.1,6.1-1.1h3.3c3.3,0,6,1,8,3,2,2,3,4.7,3,8v28.7h-12.9v-26.5c0-.7-.2-1.3-.7-1.8-.5-.5-1.1-.7-1.8-.7h-2.6Z"/>
  <path class="st0" d="M359.5,310.8c-4.8,1-8.9,1.5-12.5,1.5h-2.6c-3.3,0-6-1-8-3-2-2-3-4.7-3-8v-14.7c0-3.7,1-6.6,3.1-8.6,2.1-2.1,5-3.1,8.6-3.1h27.2v41.1c0,3.3-1,6-3,8-2,2-4.7,3-8,3-7.7,0-16.3-.5-25.7-1.5v-9.6c9.4.7,16.5,1.1,21.3,1.1s1.3-.2,1.8-.7c.5-.5.7-1.1.7-1.8v-3.7ZM350.7,302.4c3.1,0,6-.2,8.8-.7v-16.9h-10.3c-2,0-2.9,1-2.9,2.9v12.1c0,.7.2,1.3.7,1.8.5.5,1.1.7,1.8.7h1.8Z"/>
  <path class="st0" d="M395.9,276.3v37.5h-12.9v-27.6h-5.5v-9.9h18.4Z"/>
  <path class="st0" d="M424.9,284.8c-2.6,0-5.5.5-8.8,1.5v27.6h-12.9v-38.9h11.4l.7,3.7c2.3-1.5,4.7-2.6,7.1-3.3,2.4-.7,4.5-1.1,6.1-1.1h3.3c3.3,0,6,1,8,3,2,2,3,4.7,3,8v28.7h-12.9v-26.5c0-.7-.2-1.3-.7-1.8-.5-.5-1.1-.7-1.8-.7h-2.6Z"/>
  <path class="st0" d="M485.5,313c-9.5,1-18,1.5-25.7,1.5s-6-1-8-3c-2-2-3-4.7-3-8v-17.6c0-3.7,1-6.6,3.1-8.6,2.1-2.1,5-3.1,8.6-3.1h14.7c3.7,0,6.6,1,8.6,3.1,2.1,2.1,3.1,5,3.1,8.6v13.6h-25.3v2.9c0,.7.2,1.3.7,1.8.5.5,1.1.7,1.8.7,4.8,0,12-.4,21.3-1.1v9.2ZM464.6,283.3c-2,0-2.9,1-2.9,2.9v4h12.5v-4c0-2-1-2.9-2.9-2.9h-6.6Z"/>
  <g>
    <rect class="st0" x="99.4" y="190.9" width="21.8" height="21.8"/>
    <rect class="st0" x="99.4" y="164.1" width="21.8" height="21.8"/>
    <rect class="st0" x="99.4" y="218.1" width="21.8" height="21.8"/>
    <rect class="st0" x="99.4" y="245.2" width="21.8" height="21.8"/>
    <rect class="st0" x="129.4" y="245.2" width="21.8" height="21.8"/>
    <rect class="st0" x="157.8" y="219.1" width="21.8" height="21.8"/>
    <rect class="st0" x="172.7" y="245.2" width="21.8" height="21.8"/>
    <rect class="st0" x="201.6" y="245.2" width="21.8" height="21.8"/>
    <rect class="st0" x="301.1" y="252.2" width="47.2" height="14.9"/>
    <rect class="st0" x="314.8" y="225" width="82.6" height="15"/>
    <rect class="st0" x="314.8" y="197.9" width="30.3" height="15"/>
    <rect class="st0" x="366.2" y="252.2" width="31.2" height="14.9"/>
    <rect class="st0" x="408.4" y="197.9" width="44.6" height="15"/>
    <rect class="st0" x="129.4" y="190.9" width="21.8" height="21.8"/>
  </g>
  <path class="st0" d="M251,207.7c-32.5,0-58.8-26.3-58.8-58.8s26.3-58.8,58.8-58.8,11.2.8,16.3,2.3l7.1-20.1-5.8-16.6c-.4-1.8-2.2-3.1-4-3.1h-27.4c-1.8,0-3.6,1.3-4.5,3.1l-5.8,16.6c-4.5,1.3-9,3.1-13.5,5.8l-15.3-8.1c-1.8-.9-3.6-.4-5.4.9l-19.3,19.3c-1.3,1.3-1.8,3.6-.9,4.9l7.6,15.7c-2.2,4.5-4,9-5.4,13.5l-16.6,5.8c-1.8.9-3.1,2.7-3.1,4.5v27.4c0,1.8,1.3,3.6,3.1,4.5l16.6,5.8c1.3,4.5,3.1,9,5.8,13.5l-7.6,15.7c-.9,1.8-.4,4,.9,5.4l19.3,19.3c1.3,1.3,3.6,1.8,5.4.9l15.7-7.6c4.5,2.2,9,4,13.5,5.8l5.8,16.6c.4,1.8,2.2,3.1,4,3.1h27.4c1.8,0,3.6-1.3,4-3.1l5.8-16.6c4.2-1.3,8.4-2.9,12.6-5.3l-8.8-19.4c-8.3,4.4-17.7,6.9-27.7,6.9Z"/>
  <path class="st0" d="M227.7,162.2c10.8,19.6,39.4,13.6,46.2-6.3l55.7-1.5c2.3-.9,3.5-2.4,4.6-4.6,5.5-10.6,9.4-34.3,13.8-47.1,1.1-3.1,2.5-10.7,5.5-11.5,4.8,13.4,18.3,99.4,24.4,104.3,5,4,12.1,2.2,15.4-3.1,7.5-11.9,10.8-38.5,16.4-52.3,4.6,1.5,8.7,14.6,12.4,15.7h35.5v-12.9h-31.4c-1.7,0-8.6-27-23-18l-19.4,50.3-20-96.7c-3.6-9-15.3-10.8-20.4-2.2l-19.7,65.6-50.9.2c-12.5-34.3-62.8-11.6-45.3,20.2Z"/>
</svg>